<?xml version="1.0" encoding="UTF-8"?>
<svg id="Layer_2" data-name="Layer 2" xmlns="http://www.w3.org/2000/svg" viewBox="0 0 2852.01 1682.31">
  <defs>
    <style>
      .cls-1 {
        fill: #f7ea4d;
      }
    </style>
  </defs>
  <g id="Layer_1-2" data-name="Layer 1">
    <g>
      <path d="M1531.7,724.65c-55.29,2.03-104.76-32.68-157.88-45.07-41.27,3.23-77.97-13.8-117.5-20.05-44.97-7.99-90.12-5.39-134.43-18.11-93.22-27.18-199.48-.93-284.62-55.2-30.51-15.63-56.93-41.13-74.16-70.59-7.45-19.23,8.04-38.59,6.48-58.76-6.33-32.23,16.21-48.43,40.26-65.18,30.32-13.2,58.4-31.91,90.24-40,48.84-21.91,107.4-13.4,154.28-41.23,90.75-22.87,184.9-8.93,277.12-7.7,79.37-3.84,159.69-9.13,237.4,11.55,55.15,19.54,116.32,8.04,171.66,27.63,44.88,9.36,84.12,40.07,131.01,39.93,32.7,6.11,61.08,26.51,95.3,27.95,17,3.78,26.58,20.4,44.36,24.36,23.76,8.69,54.96,9.29,72.15,29.59,20.78,24.63,54.02,33.27,85.55,40.3,17.22,7.88,31.8,19.75,48.6,28.76,30.25,25.9,56.31,56.13,93.63,69.32,14.83,19.2,43.5,21.17,57.68,38.38,6.37,18.34,25.89,27.57,31.29,46.51,5.34,14.22,14.23,25.52,27.89,32.76,32.53,21.75,44.08,58.62,59.83,92.73,2.51,12.4,23.62,8.67,19.45,23.97-7.15,23.09,27.67,27.61,22.74,46.63-1.27,4.86-.26,8.85,2.91,12.22,17.26,22.33,2.98,53.97,15.51,79.26,9.02,20.38-1.54,42.43,6.3,62.8,7.42,29.68-1.4,62.96-4.14,91.68-19.72,33.82-12.57,76.42-37.2,107.27-26,17.74-54.11,39.49-63.56,71.31-1.31,11.27-8.96,17.48-16.33,25.14-25.44,16.94-41.76,44.07-73.13,51.02-9.78,4.88-10.36,19.64-23.47,20.32-9.76,1.82-15.81,12.7-26.39,11.64-17.64-.33-20.16,21.38-33.03,25.52-22.6-.06-4.36,27.83-28,25.9-9.34.06-10.42,1.42-12.84,10.59-11.98,20.25-53.33,3.47-68.41,23.96-2.55,3.88-5.48,6.71-10.73,6.28-23.47,13.35-53.93,5.43-74.68,23.81-32.35,28.45-77.97,30.36-119.43,36.75-24.26,13.73-55.96,14.47-77.22,31.17-3.01,4.38-7.1,6.19-12.75,4.66-15.59-8.91-20.43,19.22-32.7,8.16-15.57-15.41-10.41,18-41.93,14.95-112.49,7.62-221.29,31.64-333.03,40.54-39.6,9.55-80.35.41-119.02,5.65-13.35,8.22-25.84-6.05-40.23-3.01-19.47,2.31-41-.57-58.31,9.56-3.91,2.82-8.23,2.45-12.53.27-15.48-9.16-33.33-3.17-50.3-2.77-29.33-8.96-59.75-3.65-89.48-10.08-55.15,1.07-106.82-17.88-162.72-16.64-37.05-5.68-72.07-19.56-109.18-25.55-28.54-4.45-56.77-3.11-84.74-13.25-63.23-12.52-127.21-8.23-190.52-23.92-26.97-13.47-57.85-10.03-85.64-17.83-14.11-8.45-28-16.66-45.45-14.76-18.31,3.02-35.68-10.42-53.24-6.16-30.89,9.93-62.56-8.46-93.38-13.34-72.33-35.25-152.7-58.34-212.77-116.56-7.89-18.34-27.22-25-39.11-40.38-14.73-27.03-21.21-61.5-18.57-91.47-1.61-26.25,40.13-39.58,43.26-72.22,12.06-29,48.64-26.79,71.86-41.01,44.69-19.33,95.55-24.58,142.29-37.7,46.01-5.78,91.94-1.09,137.87-5.16,25.28,3.25,38.84-17.44,63.29-4.17,27.19,10.4,53.03-2.7,80.26-3.42,51.17-.85,102.04,5.04,153.4,2.38,73.5,4.55,147.57-8.69,221.31,7.38,15.26,5.81,30.27-1.3,45.2-4.75,17.09-2.09,33.88,6.12,50.81-.78,27.87-8.43,56.11,8.19,83.55,1.6,9.1-4.52,18.93,3.94,27.03-1.65,10.1-9.28,21.42,6.81,30.87-2.62,39.66-15.5,85.88-6.18,128.37-7.54,60.67-3.33,118.91-12.18,178.74-10.51,62.66-11.43,125.43-6.53,186.67-21.9,15.58-.3,26.19-16.02,42.18-11.49,25.18,1.88,53.85,2.47,78.41-6.13,18.11-14.45,43.04-2.67,60.98-17.11,21.17-12.7,48.57-7.78,67.93-25.37,38.79-4.41,59.05-49.29,33.77-80.47-28.67-33.2-45.62-68.21-88.4-84.54-5.3-13.36-19.06-17.94-31.26-21.92-24.12-14.41-46.27-34.67-75.33-41.84-42.56-14.77-80.13-36.45-126.13-40.42-22.58-14.62-46.8-33.31-75.81-31.81Z"/>
      <path d="M2847.66,291.18c-18,31.51-31.07,70.86-54.63,99.09-7.61,8.94-17.94,14.94-27.01,22.22-8.07,6.89-17.42,13.8-26.97,16.85-9.56,3.24-19.01,7.64-27.82,13.3-11.26,7.16-24.58,10.91-37.94,10.93-10.02.16-18.53-1.47-27.37-.15-10.08,1.43-17.85,6.88-28.06,8.97-11.17,2.51-24.54,2.23-35.12-.71-7.05-1.98-13.57-6.07-20.11-8.44-4.43-1.64-9.12-2.58-13.79-3.1-12.09-.94-25.39-2.47-37.57-5.92-7.94-2.04-16.09-4.68-22.14-8.97-4.6-3.16-8.43-7.01-12.5-10.87-6.26-6.22-13.88-11.39-21.27-16.34-12.41-8.45-23.73-18.4-31.84-30.89-3.7-5.6-7.44-11.2-13.02-14.9-11.1-6.97-20.15-10.46-21.29-24.48-.83-6.9-.49-14.69-3.28-21.05-3.44-8.37-11.85-12.82-16.94-19.92-7.08-9.29-.79-21.51-.76-33.1.57-10.3-.51-20.74-.47-30.95.12-12.7,1.74-24.86.67-37.57-4.76-40.18,6.89-40.59,24.35-72.45,9.83-17.31,17.97-37.38,34.71-49.06,7.84-5.5,16.62-9.76,24.76-14.9,13.27-8.3,25.18-18.54,39.31-25.2,7.26-3.59,15.61-5.8,22.81-9.26,7.83-3.98,16.1-6.9,24.58-9.42,5.48-2.08,11.16-3.89,16.6-6.77,6.69-3.56,12.65-7.85,20.63-8.08,13.03-.31,25.44,5.78,37.98,9.2,20.47,6.4,44.43,7.24,63.96,9.82,23.89,2.38,42.68,15.47,61.82,29.13,7.79,5.39,15.53,10.6,23.8,14.97,11.14,5.87,22.09,8.82,28.35,19.37,4.06,6.53,5.35,14.56,9.36,21.13,5.85,8.92,16.84,13.75,21.04,23.97,3.9,8.15,4.27,18.07,7.4,27.39,3.73,11.28,9.78,21.29,12.32,32.89,5.25,24.04,8.87,56.47,9.78,80.7.27,8.44-1.25,16.47-4.26,22.48l-.06.13Z"/>
      <path class="cls-1" d="M2641.19,240.06c-2.44,4.27-4.21,9.6-7.4,13.43-1.03,1.21-2.43,2.02-3.66,3.01-1.09.93-2.36,1.87-3.66,2.28-1.3.44-2.58,1.04-3.77,1.8-1.53.97-3.33,1.48-5.14,1.48-1.36.02-2.51-.2-3.71-.02-1.37.19-2.42.93-3.8,1.22-1.51.34-3.33.3-4.76-.1-.96-.27-1.84-.82-2.73-1.14-.6-.22-1.24-.35-1.87-.42-1.64-.13-3.44-.33-5.09-.8-1.08-.28-2.18-.63-3-1.22-.62-.43-1.14-.95-1.69-1.47-.85-.84-1.88-1.54-2.88-2.21-1.68-1.15-3.22-2.49-4.32-4.19-.5-.76-1.01-1.52-1.76-2.02-1.5-.94-2.73-1.42-2.89-3.32-.11-.94-.07-1.99-.44-2.85-.47-1.13-1.61-1.74-2.3-2.7-.96-1.26-.11-2.92-.1-4.49.08-1.4-.07-2.81-.06-4.2.02-1.72.24-3.37.09-5.09-.64-5.45.93-5.5,3.3-9.82,1.33-2.35,2.44-5.07,4.7-6.65,1.06-.75,2.25-1.32,3.36-2.02,1.8-1.12,3.41-2.51,5.33-3.42.98-.49,2.12-.79,3.09-1.26,1.06-.54,2.18-.93,3.33-1.28.74-.28,1.51-.53,2.25-.92.91-.48,1.71-1.06,2.8-1.09,1.77-.04,3.45.78,5.15,1.25,2.77.87,6.02.98,8.67,1.33,3.24.32,5.78,2.1,8.38,3.95,1.06.73,2.1,1.44,3.23,2.03,1.51.8,2.99,1.19,3.84,2.62.55.89.72,1.97,1.27,2.86.79,1.21,2.28,1.86,2.85,3.25.53,1.1.58,2.45,1,3.71.51,1.53,1.33,2.89,1.67,4.46.71,3.26,1.2,7.65,1.33,10.94.04,1.14-.17,2.23-.58,3.05v.02Z"/>
    </g>
  </g>
</svg>